<svg width="62" height="64" viewBox="0 0 62 64" fill="none" xmlns="http://www.w3.org/2000/svg">
<path d="M61.5933 30.6025C61.5899 13.6978 47.8828 -0.00341734 30.9775 6.39362e-07C14.0728 0.00341861 0.371583 13.7109 0.375001 30.6157C0.37793 43.9316 8.98877 55.7178 21.6738 59.7681C21.7949 59.8062 21.9209 59.8257 22.0474 59.8252C22.2886 59.8247 22.5249 59.7603 22.7324 59.6377C23.0024 59.478 23.2041 59.2241 23.2988 58.9248L31.0288 34.4248C33.1421 34.4141 34.8462 32.6919 34.835 30.5791C34.8242 28.4658 33.1025 26.7617 30.9893 26.7725C30.4209 26.7749 29.8599 26.9058 29.3491 27.1553L19.1372 16.9419C18.6304 16.4526 17.8232 16.4668 17.334 16.9731C16.8564 17.4678 16.8564 18.251 17.334 18.7456L27.5405 28.9639C26.7573 30.5625 27.2051 32.4922 28.6133 33.582L21.2481 56.9277C6.69238 51.5659 -0.760742 35.4199 4.60108 20.8643C9.96289 6.30859 26.1089 -1.14453 40.6646 4.21729C55.2202 9.5791 62.6734 25.7256 57.3115 40.2808C54.6919 47.3921 49.3096 53.1431 42.3872 56.2275L41.5913 52.479C41.4458 51.79 40.7686 51.3496 40.0796 51.4956C39.8623 51.542 39.6607 51.644 39.4946 51.792L31.8208 58.6431C31.2944 59.1113 31.2476 59.9175 31.7163 60.4439C31.8687 60.6148 32.064 60.7417 32.2827 60.8115L42.0801 63.9385C42.7505 64.1538 43.4688 63.7852 43.6841 63.1143C43.7525 62.9023 43.7637 62.6768 43.7178 62.459L42.9356 58.7808C54.2642 54.0049 61.6196 42.8965 61.5933 30.6025ZM30.9844 29.3272C31.6885 29.3272 32.2598 29.8984 32.2598 30.6025C32.2598 31.3071 31.6885 31.8779 30.9844 31.8779C30.2798 31.8779 29.709 31.3071 29.709 30.6025C29.709 29.8984 30.2798 29.3272 30.9844 29.3272ZM35.1851 59.0552L39.5532 55.1587L40.7588 60.8394L35.1851 59.0552Z" fill="#2E2F42"/>
</svg>
